<svg width="236" height="96" viewBox="0 0 236 96" fill="none" xmlns="http://www.w3.org/2000/svg">
<g clip-path="url(#clip0_238_5175)">
<path d="M24.1301 41.8963C23.1519 38.0459 20.6811 35.2313 15.8332 35.2313C8.7015 35.2313 5.7166 41.5701 5.7166 47.9996C5.7166 54.4291 8.7015 60.7679 15.8332 60.7679C21.0083 60.7679 23.8497 56.8705 24.3171 51.9878H30.0031C29.5357 60.0146 23.8964 65.5564 15.8332 65.5564C5.85683 65.5564 -0.109619 57.5766 -0.109619 47.9962C-0.109619 38.4158 5.85683 30.4395 15.8332 30.4395C23.3388 30.4865 29.2585 34.6664 29.9563 41.8963H24.1301Z" fill="white"/>
<path d="M33.4552 52.6032C33.4552 45.1851 37.8825 39.835 45.6218 39.835C53.3612 39.835 57.7884 45.1884 57.7884 52.6032C57.7884 60.018 53.3612 65.4186 45.6218 65.4186C37.8825 65.4186 33.4552 60.0651 33.4552 52.6032ZM52.4731 52.6032C52.4731 48.4234 50.3763 44.0585 45.6218 44.0585C40.8674 44.0585 38.7706 48.4234 38.7706 52.6032C38.7706 56.7831 40.8674 61.195 45.6218 61.195C50.3763 61.195 52.4731 56.8302 52.4731 52.6032Z" fill="white"/>
<path d="M62.356 31.2402H67.6714V36.3112H62.356V31.2402ZM62.356 40.4877H67.6714V64.7599H62.356V40.4877Z" fill="white"/>
<path d="M73.4507 40.4907H78.4856V44.0585L78.5791 44.1527C80.165 41.476 82.9129 39.835 86.0847 39.835C91.3066 39.835 94.6154 42.6529 94.6154 48.0972V64.7628H89.3V49.5062C89.2065 45.7029 87.7141 44.0619 84.5923 44.0619C81.0498 44.0619 78.7661 46.8799 78.7661 50.4477V64.7662H73.4507V40.4941V40.4907Z" fill="white"/>
<path d="M129.993 64.7623H126.264L125.379 60.8179C122.257 64.3857 119.413 65.5593 115.356 65.5593C105.38 65.5593 99.4133 57.5796 99.4133 47.9992C99.4133 38.4188 105.38 30.4424 115.356 30.4424C122.628 30.4424 128.735 34.3398 129.62 41.8992H123.934C123.373 37.4873 119.553 35.2343 115.356 35.2343C108.224 35.2343 105.24 41.573 105.24 48.0025C105.24 54.432 108.224 60.7708 115.356 60.7708C121.323 60.8649 124.585 57.25 124.678 51.5704H115.82V47.1114H129.99V64.7623H129.993Z" fill="white"/>
<path d="M139.736 54.0083C139.736 57.8115 141.786 61.1911 146.217 61.1911C149.292 61.1911 151.158 59.8292 152.09 57.1524H157.125C155.959 62.4588 151.485 65.4146 146.217 65.4146C138.664 65.4146 134.424 60.1083 134.424 52.6464C134.424 45.7461 138.898 39.8311 146.077 39.8311C153.676 39.8311 158.337 46.7314 157.452 54.0083H139.739H139.736ZM152.136 50.4875C151.949 47.108 149.666 44.0546 146.077 44.0546C142.487 44.0546 139.876 46.8726 139.736 50.4875H152.136Z" fill="white"/>
<path d="M177.775 48.6117C177.355 45.6525 175.211 44.0585 172.276 44.0585C169.525 44.0585 165.656 45.5146 165.656 52.8857C165.656 56.9243 167.428 61.195 172.043 61.195C175.118 61.195 177.265 59.1303 177.775 55.6566H183.091C182.113 61.9482 178.243 65.4219 172.043 65.4219C164.49 65.4219 160.344 60.0214 160.344 52.8857C160.344 45.75 164.307 39.835 172.23 39.835C177.822 39.835 182.577 42.6529 183.091 48.615H177.775V48.6117Z" fill="white"/>
<path d="M187.565 31.2402H192.88V50.3001L202.482 40.4877H209.007L199.778 49.409L209.895 64.7599H203.414L196.049 52.9769L192.88 56.0739V64.7599H187.565V31.2402Z" fill="white"/>
<path d="M211.337 52.6032C211.337 45.1851 215.764 39.835 223.504 39.835C231.243 39.835 235.67 45.1884 235.67 52.6032C235.67 60.018 231.243 65.4186 223.504 65.4186C215.764 65.4186 211.337 60.0651 211.337 52.6032ZM230.355 52.6032C230.355 48.4234 228.258 44.0585 223.504 44.0585C218.749 44.0585 216.653 48.4234 216.653 52.6032C216.653 56.7831 218.749 61.195 223.504 61.195C228.258 61.195 230.355 56.8302 230.355 52.6032Z" fill="white"/>
</g>
<defs>
<clipPath id="clip0_238_5175">
<rect width="236" height="96" fill="white"/>
</clipPath>
</defs>
</svg>
