<svg width="1080" height="272" viewBox="0 0 1080 272" fill="none" xmlns="http://www.w3.org/2000/svg">
<path d="M306.2 156.4C306.2 158.3 304.6 159.9 302.6 159.9H236.3C238 176.3 250.3 191.3 267.7 191.3C279.6 191.3 288.4 186.8 295 177.3C295.7 176.3 296.7 175.6 297.9 175.6C299.8 175.6 301.2 177 301.2 178.9C301.2 179.6 301 180.1 300.7 180.6C294 192.2 280.7 197.9 267.7 197.9C245.4 197.9 229.4 177.9 229.4 156.6C229.4 135.2 245.3 115.3 267.7 115.3C290 115.3 306.1 135.1 306.2 156.4ZM299.1 153.3C297.7 136.9 285.1 121.9 267.7 121.9C250.3 121.9 238 136.9 236.3 153.3H299.1Z" fill="white"/>
<path d="M386.7 116.9C388.6 116.9 390 118.6 390 120.2C390 122.1 388.6 123.5 386.7 123.5H368.9V193.4C368.9 195.1 367.5 196.7 365.6 196.7C363.7 196.7 362.3 195 362.3 193.4V123.5H345.2C343.3 123.5 341.9 122.1 341.9 120.2C341.9 118.5 343.3 116.9 345.2 116.9H362.3V91.4C362.3 89.7 363.6 88.1 365.3 87.9C367.4 87.7 369 89.2 369 91.2V116.9H386.7Z" fill="white"/>
<path d="M495.3 150.7V193C495.3 194.9 493.6 196.3 492 196.3C490.1 196.3 488.7 194.9 488.7 193V150.7C488.7 136.4 480.6 122.2 464.7 122.2C444.3 122.2 435.5 140 436.7 158.3C436.7 158.8 436.9 160.9 436.9 161.2V192.9C436.9 194.6 435.6 196.2 433.9 196.4C431.8 196.6 430.2 195.1 430.2 193.1V54C430.2 52.3 431.6 50.7 433.5 50.7C435.4 50.7 436.8 52.4 436.8 54V132.6C442.5 122.4 452.7 115.5 464.6 115.5C484.2 115.5 495.3 132.6 495.3 150.7Z" fill="white"/>
<path d="M614.4 156.4C614.4 158.3 612.8 159.9 610.8 159.9H544.5C546.2 176.3 558.5 191.3 575.9 191.3C587.8 191.3 596.6 186.8 603.2 177.3C603.9 176.3 604.9 175.6 606.1 175.6C608 175.6 609.4 177 609.4 178.9C609.4 179.6 609.2 180.1 608.9 180.6C602.2 192.2 588.9 197.9 575.9 197.9C553.6 197.9 537.6 177.9 537.6 156.6C537.6 135.2 553.5 115.3 575.9 115.3C598.1 115.3 614.2 135.1 614.4 156.4ZM607.2 153.3C605.8 136.9 593.2 121.9 575.8 121.9C558.5 121.9 546.1 136.9 544.4 153.3H607.2Z" fill="white"/>
<path d="M695.8 120C695.8 122.1 694.6 123.3 692.7 123.6C673.2 126.5 664.4 142.4 664.4 160.9V192.6C664.4 194.3 663.1 195.9 661.4 196.1C659.3 196.3 657.7 194.8 657.7 192.8V120.5C657.7 118.8 659 117.2 660.7 117C662.8 116.8 664.4 118.3 664.4 120.3V135C669.9 125.7 680.8 116.9 692.2 116.9C693.9 116.9 695.8 118.1 695.8 120Z" fill="white"/>
<path d="M804.9 156.4C804.9 158.3 803.3 159.9 801.3 159.9H735C736.7 176.3 749 191.3 766.4 191.3C778.3 191.3 787.1 186.8 793.7 177.3C794.4 176.3 795.4 175.6 796.6 175.6C798.5 175.6 799.9 177 799.9 178.9C799.9 179.6 799.7 180.1 799.4 180.6C792.7 192.2 779.4 197.9 766.4 197.9C744.1 197.9 728.1 177.9 728.1 156.6C728.1 135.2 744 115.3 766.4 115.3C788.7 115.3 804.8 135.1 804.9 156.4ZM797.8 153.3C796.4 136.9 783.8 121.9 766.4 121.9C749 121.9 736.7 136.9 735 153.3H797.8Z" fill="white"/>
<path d="M912.1 120.8V143.7V193.4C912.1 195.3 910.4 196.7 908.8 196.7C906.9 196.7 905.5 195.3 905.5 193.4V179.6C900 190.5 890.3 198.4 877.9 198.4C858.2 198.4 847.3 181.3 847.3 163.2V120.7C847.3 119 848.7 117.4 850.6 117.4C852.5 117.4 853.9 119.1 853.9 120.7V163.2C853.9 177.5 862 191.7 877.9 191.7C900.2 191.7 905.5 170.8 905.5 147.7V120.6C905.5 118.6 907.6 116.6 910 117.5C911.2 118.1 912.1 119.4 912.1 120.8Z" fill="white"/>
<path d="M1080 150.4V192.9C1080 194.8 1078.3 196.2 1076.7 196.2C1074.8 196.2 1073.4 194.8 1073.4 192.9V150.4C1073.4 136.1 1065.3 122.1 1049.4 122.1C1029.4 122.1 1021.8 143.5 1021.8 160.1V192.9C1021.8 194.8 1020.1 196.2 1018.5 196.2C1016.6 196.2 1015.2 194.8 1015.2 192.9V150.4C1015.2 136.1 1007.1 122.1 991.2 122.1C971 122.1 962.7 138 963.4 159.2C963.4 159.7 963.6 160.6 963.4 160.9V192.8C963.4 194.5 962.1 196.1 960.4 196.3C958.3 196.5 956.7 195 956.7 193V120.5C956.7 118.8 958 117.2 959.7 117C961.8 116.8 963.4 118.3 963.4 120.3V132.4C969.1 122.2 979.3 115.5 991.2 115.5C1004.7 115.5 1015.2 124.1 1019.5 136.6C1025 124.2 1035.7 115.5 1049.4 115.5C1068.9 115.5 1080 132.4 1080 150.4Z" fill="white"/>
<path opacity="0.6" d="M83 100.8L0 138.5L83 187.6L166.1 138.5L83 100.8Z" fill="black"/>
<path opacity="0.45" d="M0 138.5L83 187.6V100.8V0.700012L0 138.5Z" fill="white"/>
<path opacity="0.8" d="M83 0.700012V100.8V187.6L166.1 138.5L83 0.700012Z" fill="white"/>
<path opacity="0.45" d="M0 154.3L83 271.3V203.3L0 154.3Z" fill="white"/>
<path opacity="0.8" d="M83 203.3V271.3L166.1 154.3L83 203.3Z" fill="white"/>
</svg>
