<?xml version="1.0" encoding="UTF-8"?>
<svg id="Layer_2" data-name="Layer 2" xmlns="http://www.w3.org/2000/svg" xmlns:xlink="http://www.w3.org/1999/xlink" viewBox="0 0 482.67 482.7">
  <defs>
    <style>
      .cls-1 {
        fill: url(#linear-gradient-2);
      }

      .cls-2 {
        fill: #fff;
      }

      .cls-3 {
        fill: url(#linear-gradient-4);
      }

      .cls-4 {
        fill: url(#linear-gradient-3);
      }

      .cls-5 {
        fill: url(#linear-gradient);
      }
    </style>
    <linearGradient id="linear-gradient" x1="498.58" y1="74.86" x2="66.58" y2="74.12" gradientUnits="userSpaceOnUse">
      <stop offset=".43" stop-color="#acaef8"/>
      <stop offset="1" stop-color="#6366f1"/>
    </linearGradient>
    <linearGradient id="linear-gradient-2" x1="77.39" y1="9.87" x2="70.75" y2="410.17" xlink:href="#linear-gradient"/>
    <linearGradient id="linear-gradient-3" x1="400.27" y1="481.92" x2="415.75" y2="73.51" xlink:href="#linear-gradient"/>
    <linearGradient id="linear-gradient-4" x1="16.28" y1="410.57" x2="407.73" y2="407.62" xlink:href="#linear-gradient"/>
  </defs>
  <g id="Layer_1-2" data-name="Layer 1">
    <g>
      <path class="cls-5" d="M482.25,89.73c-1.17-8.22-4.91-16.1-11.26-22.4-15.59-15.46-41.09-14.55-56.62.98l-80.18,80.18-186.14.02-80.16-80.16c-15.46-15.46-16.46-40.82-1.17-56.45,6.27-6.41,14.14-10.21,22.32-11.44h11.83s292.34-.02,292.34-.02c49.17,0,89.04,39.86,89.04,89.03v.26Z"/>
      <path class="cls-1" d="M148.08,334.65l-80.78,80.78c-15.44,15.44-40.45,15.42-55.87,0-6.71-6.71-10.52-15.25-11.4-24,0-.04,0-.09-.02-.15v-7.57c.02-.06.02-.11.02-.15L0,89.49C0,40.32,39.87.45,89.04.45h0c-8.18,1.23-16.05,5.03-22.32,11.44-15.29,15.63-14.29,40.99,1.17,56.45l80.16,80.16.02,186.14Z"/>
      <path class="cls-4" d="M388.8,482.68c9.48-.45,18.8-4.3,26.05-11.55,15.42-15.42,15.44-40.43,0-55.87l-80.63-80.63-.02-186.14,80.18-80.18c15.53-15.53,41.03-16.44,56.62-.98,6.35,6.3,10.09,14.17,11.26,22.4v.04s0,11.23,0,11.23v.04s.02,292.6.02,292.6c0,49.17-39.86,89.04-89.03,89.04h-4.43Z"/>
      <path class="cls-2" d="M482.25,101v-11.23c.56,3.7.56,7.53,0,11.23Z"/>
      <path class="cls-3" d="M414.85,471.13c-7.25,7.25-16.56,11.1-26.05,11.55-.04,0-.11.02-.17,0l-3.42.02c-.06-.02-.11-.02-.19-.02l-295.96.02C39.89,482.7.02,442.84.02,393.66v-2.24c.88,8.75,4.69,17.29,11.4,24,15.42,15.42,40.43,15.44,55.87,0l80.78-80.78,186.14-.02,80.63,80.63c15.44,15.44,15.42,40.45,0,55.87Z"/>
      <path class="cls-2" d="M100.87.45h-11.83c3.91-.6,7.92-.6,11.83,0Z"/>
    </g>
  </g>
</svg>